<svg xmlns="http://www.w3.org/2000/svg" viewBox="0 0 192 192" role="img" aria-label="Beach Buddy">
  <rect width="192" height="192" rx="44" fill="#e0f2fe"/>
  <circle cx="138" cy="54" r="22" fill="#fb923c"/>
  <path fill="#0ea5e9" d="M24 126c18-17 36-17 54 0s36 17 54 0 36-17 54 0v42H24z"/>
  <path fill="#38bdf8" d="M24 101c18-17 36-17 54 0s36 17 54 0 36-17 54 0v34c-18-17-36-17-54 0s-36 17-54 0-36-17-54 0z"/>
  <path fill="#fef3c7" d="M24 136c20 12 42 18 66 18 30 0 56-9 78-26 8-6 14-7 18-2v42H24z"/>
</svg>
